<svg version="1.1" xmlns="http://www.w3.org/2000/svg" xmlns:xlink="http://www.w3.org/1999/xlink" x="0px" y="0px"
	 viewBox="0 0 512 512" enable-background="new 0 0 512 512" xml:space="preserve">
<path d="M357.2,238.4l-143.1-90c-12.4-7.8-28,2-28,17.6v180c0,15.7,15.6,25.4,28,17.6l143.1-90
	C369.6,265.7,369.6,246.2,357.2,238.4z"/>
<path d="M436.7,74.8C388.4,26.6,324.3,0,256,0C187.7,0,123.6,26.6,75.3,74.8S0.5,187.2,0.5,255.5
	c0,68.3,26.6,132.4,74.8,180.7C123.6,484.4,187.7,511,256,511c68.3,0,132.4-26.6,180.7-74.8s74.8-112.4,74.8-180.7
	C511.5,187.2,484.9,123.1,436.7,74.8z M256,493.2c-63.5,0-123.1-24.7-168.1-69.7C43,378.6,18.3,319,18.3,255.5
	C18.3,192,43,132.4,87.9,87.4C132.9,42.5,192.5,17.8,256,17.8c63.5,0,123.1,24.7,168.1,69.7c44.9,44.9,69.7,104.6,69.7,168.1
	c0,63.5-24.7,123.1-69.7,168.1C379.1,468.5,319.5,493.2,256,493.2z"/>
</svg>
